<svg xmlns="http://www.w3.org/2000/svg" width="980" height="200" viewBox="0 0 980 200" role="img" aria-label="Atari RAM becomes a text menu">
<title>Atari RAM becomes a text menu</title>
<rect width="100%" height="100%" fill="#171512"/>
<defs>
  <marker id="arrow" viewBox="0 0 10 10" refX="9" refY="5" markerWidth="8" markerHeight="8" orient="auto-start-reverse">
    <path d="M 0 0 L 10 5 L 0 10 z" fill="#D89B55"/>
  </marker>
</defs>
<rect x="32.0" y="70.0" width="150.0" height="56.0" rx="8" fill="#0D0C0B" stroke="#60584E" stroke-width="1.4"/><text x="107.0" y="98.0" text-anchor="middle" fill="#F2E7D5" font-family="Inter, Helvetica, sans-serif" font-size="13" font-weight="600"><tspan x="107.0" dy="0">ALE RAM</tspan></text><rect x="230.0" y="70.0" width="150.0" height="56.0" rx="8" fill="#0D0C0B" stroke="#60584E" stroke-width="1.4"/><text x="305.0" y="98.0" text-anchor="middle" fill="#F2E7D5" font-family="Inter, Helvetica, sans-serif" font-size="13" font-weight="600"><tspan x="305.0" dy="0">ram_map</tspan></text><line x1="182.0" y1="98.0" x2="230.0" y2="98.0" stroke="#D89B55" stroke-width="1.6" marker-end="url(#arrow)"/><rect x="428.0" y="70.0" width="150.0" height="56.0" rx="8" fill="#0D0C0B" stroke="#60584E" stroke-width="1.4"/><text x="503.0" y="98.0" text-anchor="middle" fill="#F2E7D5" font-family="Inter, Helvetica, sans-serif" font-size="13" font-weight="600"><tspan x="503.0" dy="0">Observation.text</tspan></text><line x1="380.0" y1="98.0" x2="428.0" y2="98.0" stroke="#D89B55" stroke-width="1.6" marker-end="url(#arrow)"/><rect x="626.0" y="70.0" width="150.0" height="56.0" rx="8" fill="#0D0C0B" stroke="#60584E" stroke-width="1.4"/><text x="701.0" y="98.0" text-anchor="middle" fill="#F2E7D5" font-family="Inter, Helvetica, sans-serif" font-size="13" font-weight="600"><tspan x="701.0" dy="0">legal_actions</tspan></text><line x1="578.0" y1="98.0" x2="626.0" y2="98.0" stroke="#D89B55" stroke-width="1.6" marker-end="url(#arrow)"/><rect x="824.0" y="70.0" width="150.0" height="56.0" rx="8" fill="#0D0C0B" stroke="#60584E" stroke-width="1.4"/><text x="899.0" y="98.0" text-anchor="middle" fill="#F2E7D5" font-family="Inter, Helvetica, sans-serif" font-size="13" font-weight="600"><tspan x="899.0" dy="0">game.step</tspan></text><line x1="776.0" y1="98.0" x2="824.0" y2="98.0" stroke="#D89B55" stroke-width="1.6" marker-end="url(#arrow)"/>
</svg>
